<svg width="1200" height="1200" viewBox="0 0 1200 1200" fill="none" xmlns="http://www.w3.org/2000/svg">
<path d="M804.003 735.498C959.644 676.253 998.099 532.614 875.763 422.254C860.085 408.111 846.437 390.958 842.343 370.244C827.022 292.717 865.077 266.249 974.449 312.018C755.882 53.9772 595.433 226.279 663.81 390.19M804.003 735.498C781.757 772.128 778.503 789.498 778.503 816.998C822.514 811.494 850.12 823.781 894.003 836.498C946.849 828.832 976.529 828.156 1029.5 828.998C989.008 837.111 966.197 842.614 924.003 866.498C963.535 887.298 982.227 903.502 1012 936.998C1025 948.498 986.503 936.998 969.503 930.498C939.421 912.626 928.826 913.314 902.503 913.498C921.003 964.498 933.003 1038 924.003 1019.5C906.003 1001 878.718 933.814 869.503 878.998C814.517 863.972 783.16 859.136 725.003 864.498C722.472 818.122 725.773 791.595 747.503 742.498M804.003 735.498C780.097 740.706 768.114 741.732 747.503 742.498M512.503 972.998C485.534 982.963 473.362 991.644 452.003 1007.5C495.605 1004.61 519.637 1002.44 555.003 988.498C597.003 1027.5 598.503 1051 655.503 1079.5C643.135 1045.04 636.157 1025.71 609.003 988.498C652.631 982.445 677.091 979.052 720.719 972.998C669.573 954.805 641.003 955.998 590.21 955.998C605.061 878.936 614.824 835.151 668.503 742.498L747.503 742.498M655.184 365.366C555.003 390.19 512.503 443 460.088 514.079C355.781 488.073 314.788 496.081 232.93 476.509C186.911 478.021 164.022 480.116 128.039 485.913C206.972 538.903 261.84 568.986 367.508 622.915C322.795 668.743 298.145 694.901 248.737 735.527C187.794 786.853 168.918 819.774 127.073 876.274C302.71 831.998 437.997 818.291 547.21 762.998L615.003 742.498C562.024 819.18 549.251 867.512 533.71 955.998M747.501 224C783.408 224.462 804.02 227.32 842.951 244.191C812.217 233.03 795.265 228.129 767.88 233.203" stroke="black" stroke-width="15" stroke-linecap="round" stroke-linejoin="round"/>
</svg>
