<svg width="1200" height="1200" viewBox="0 0 1200 1200" fill="none" xmlns="http://www.w3.org/2000/svg">
<path d="M592.5 994.002C570.433 1008.95 555.389 1022.1 536.5 1041C572.645 1039.76 590.569 1036.03 619.5 1025.5C663.2 1055.48 689.325 1066.75 736.433 1085C716.601 1059.65 705.188 1045.42 676 1019.5C710.5 1019.5 738.023 1019.79 773 1009.5C725 993.002 699.5 993.002 659 987.002C699.465 914.036 717.988 870.006 719.5 767.844M684.236 380.847C553.212 409.535 517.5 459 466.379 532.083C362.072 506.076 321.078 514.085 239.22 494.512C193.202 496.025 170.312 498.12 134.33 503.916C213.263 556.907 268.131 586.99 373.799 640.919C329.085 686.746 304.435 712.904 255.028 753.531C194.084 804.857 175.209 837.777 133.364 894.278C309 850.002 444.287 836.295 553.5 781.002L667 772M692.862 405.671C624.484 241.76 784.934 69.4586 1003.5 327.5C889.416 279.758 852.926 310.614 873.672 396.031C877.083 410.076 884.865 422.644 893.939 433.893C999.968 565.328 955.609 702.943 781.5 760.502C772.773 795.758 774.206 817.143 781.5 856.502C815.218 864.346 833.023 873.463 862.933 897.002C919 907.002 951.575 914.687 1003.5 945.502C961.307 945.791 937.405 945.649 890.5 940.002C921.097 980.863 929.141 1002.42 944.5 1041C905.332 999.848 875 981.502 850.5 949.778C833.885 982.023 823.447 995.227 805 1019.5C809.567 975.133 812.827 950.866 828.933 916.502C796.126 893.93 775.733 886.818 736.433 881.502C730.04 835.361 728.496 809.887 736.433 766.502L719.5 767.844M776.553 239.481C812.46 239.943 833.072 242.801 872.003 259.673C841.269 248.511 824.317 243.611 796.932 248.685M719.5 767.844L667 772M667 772C668.467 872.349 648.5 897.002 612 967.002" stroke="black" stroke-width="15" stroke-linecap="round" stroke-linejoin="round"/>
</svg>
