<svg width="1200" height="1200" viewBox="0 0 1200 1200" fill="none" xmlns="http://www.w3.org/2000/svg">
<g clip-path="url(#clip0_803_27589)">
<path d="M870.382 937.32C866.74 992.278 874.477 1020 886.231 1070.1C890.747 1031.09 893.15 1009.07 891.013 962.045C929.866 990.433 951.977 999.043 991.576 1011.34C970.186 973.758 950.499 956 923.245 921.643C967.924 923.361 992.212 920.364 1034.68 910.78C978.499 894.5 954.095 884.954 901.394 885.276C873.814 824.506 852.654 793.022 798.325 744.529C956.157 660 979.542 548.774 901.394 409.529C869.436 308.29 902.212 268.336 1025.27 319.833C806.706 61.7924 646.257 234.094 714.634 398.005M877.287 926.159C836.143 853.664 810.963 817.322 758.524 767.602C690.852 782.409 671.95 774.189 610.548 729M610.548 729C583.946 822.188 554.871 862.904 492.069 926.585C529.999 958.085 555.867 967.405 593.497 1003.41C548.938 995.369 524.205 989.417 482.876 963.457C500.865 998.547 506.223 1017.03 514.945 1049.78C474.013 1011.48 455.837 990.874 445.377 958.085C396.999 950 365.041 949.551 315.507 934.094C363.916 926.153 391.499 926.585 445.377 921.643C493.895 856.104 531.701 813.298 548.999 739M610.548 729L548.999 739M548.999 739C419 779 272 739 112.362 779C154.207 722.499 183 703.544 217 688.5C266 666.819 290.5 648.5 350 618C244.332 564.071 191.295 477.991 112.362 425C148.344 419.204 195.5 429.143 242.999 440.5C324.857 460.073 341.071 497.075 445.377 523.081C528.542 440.931 574.984 401.869 706.008 373.181M798.325 231.815C834.232 232.277 854.844 235.135 893.776 252.007C863.041 240.845 846.09 235.944 818.704 241.019" stroke="black" stroke-width="15" stroke-linecap="round" stroke-linejoin="round"/>
</g>
<defs>
<clipPath id="clip0_803_27589">
<rect width="1200" height="1200" fill="white"/>
</clipPath>
</defs>
</svg>
