<svg width="1200" height="1200" viewBox="0 0 1200 1200" fill="none" xmlns="http://www.w3.org/2000/svg">
<path d="M842.489 936.883C839.584 983.181 846.838 1014.56 858.338 1069.66C865.334 1030.13 869.439 1008.07 863.12 961.608C900.727 966.344 920.5 988.5 963.682 1010.9C947.72 974.329 935.66 954.265 895.352 921.206C918.499 913.405 943.5 919.795 1006.79 910.343C963.097 892.532 936.535 884.485 873.5 884.839C868.843 818.857 850 780.5 824.826 749.528C982.658 665 1006.04 553.773 927.895 414.528C895.937 313.29 928.712 273.335 1051.77 324.833C833.207 66.7921 672.758 239.094 741.135 403.005M842.489 924.737C822.273 847.009 816.5 805.5 785.025 772.601C717.353 787.408 698.451 779.189 637.049 734L594.5 749.528C565.957 830.818 537.816 866.487 481.071 924.737C532.181 961.608 543 944 582.5 1001.56C532.934 987.544 507.779 979.03 471.878 961.608C491.811 998.862 498.252 1017.49 503.948 1047.93C466.773 1011.01 449.002 990.651 434.38 956.237C380.985 950.923 353.753 943.853 304.51 932.246C350.926 921.539 375.5 928 434.38 919.795C480.69 862.393 504.32 828.906 532.181 761.202C411 772.601 304.51 761.202 149.5 808C191.345 751.499 175.557 770.327 236.5 719C282 690 322 664.5 379.299 636.917C273.631 582.988 217.797 503.99 138.864 451C174.847 445.204 216 451 260.527 451C342.385 470.572 367.572 502.074 471.878 528.081C555.043 445.93 601.485 406.869 732.509 378.181M824.826 236.815C860.733 237.277 881.345 240.135 920.277 257.006C889.542 245.845 872.59 240.944 845.205 246.018" stroke="black" stroke-width="15" stroke-linecap="round" stroke-linejoin="round"/>
</svg>
