<svg width="357" height="369" viewBox="0 0 357 369" fill="none" xmlns="http://www.w3.org/2000/svg">
<g filter="url(#filter0_ddddi_540_1368)">
<mask id="path-1-outside-1_540_1368" maskUnits="userSpaceOnUse" x="3" y="1" width="352" height="362" fill="black">
<rect fill="white" x="3" y="1" width="352" height="362"/>
<path d="M224.5 104L249.853 22.1588C250.852 18.9329 255.389 18.8534 256.501 22.0422L335.806 249.509C336.233 250.734 335.947 252.094 335.064 253.044L284.851 307.047C284.032 307.928 282.765 308.234 281.634 307.825L236.5 291.5L111.436 344.337C109.4 345.197 107.087 343.979 106.644 341.814L90.441 262.549C89.8563 259.689 92.8241 257.412 95.4353 258.718L123 272.5L124.126 255.242C124.296 252.624 127.18 251.117 129.426 252.473L153.5 267L152.742 251.846C152.623 249.461 154.874 247.659 157.175 248.299L188.5 257L179 228.5L175.702 235.646C174.538 238.167 171.043 238.394 169.563 236.045L150 205L134.641 229.655C133.128 232.085 129.495 231.768 128.425 229.113L118.5 204.5L92.0919 236.272C90.0725 238.702 86.122 237.424 85.9083 234.272L84.5 213.5L67.7361 236.397C66.1109 238.617 62.6781 238.18 61.6603 235.624L22.0086 136.044C21.0675 133.681 22.8825 131.135 25.4237 131.253L180.5 138.5L188.923 57.3706C189.27 54.0325 193.661 53.0487 195.399 55.9198L224.5 104Z"/>
</mask>
<path d="M224.5 104L249.853 22.1588C250.852 18.9329 255.389 18.8534 256.501 22.0422L335.806 249.509C336.233 250.734 335.947 252.094 335.064 253.044L284.851 307.047C284.032 307.928 282.765 308.234 281.634 307.825L236.5 291.5L111.436 344.337C109.4 345.197 107.087 343.979 106.644 341.814L90.441 262.549C89.8563 259.689 92.8241 257.412 95.4353 258.718L123 272.5L124.126 255.242C124.296 252.624 127.18 251.117 129.426 252.473L153.5 267L152.742 251.846C152.623 249.461 154.874 247.659 157.175 248.299L188.5 257L179 228.5L175.702 235.646C174.538 238.167 171.043 238.394 169.563 236.045L150 205L134.641 229.655C133.128 232.085 129.495 231.768 128.425 229.113L118.5 204.5L92.0919 236.272C90.0725 238.702 86.122 237.424 85.9083 234.272L84.5 213.5L67.7361 236.397C66.1109 238.617 62.6781 238.18 61.6603 235.624L22.0086 136.044C21.0675 133.681 22.8825 131.135 25.4237 131.253L180.5 138.5L188.923 57.3706C189.27 54.0325 193.661 53.0487 195.399 55.9198L224.5 104Z" fill="url(#paint0_linear_540_1368)"/>
<path d="M224.5 104L249.853 22.1588C250.852 18.9329 255.389 18.8534 256.501 22.0422L335.806 249.509C336.233 250.734 335.947 252.094 335.064 253.044L284.851 307.047C284.032 307.928 282.765 308.234 281.634 307.825L236.5 291.5L111.436 344.337C109.4 345.197 107.087 343.979 106.644 341.814L90.441 262.549C89.8563 259.689 92.8241 257.412 95.4353 258.718L123 272.5L124.126 255.242C124.296 252.624 127.18 251.117 129.426 252.473L153.5 267L152.742 251.846C152.623 249.461 154.874 247.659 157.175 248.299L188.5 257L179 228.5L175.702 235.646C174.538 238.167 171.043 238.394 169.563 236.045L150 205L134.641 229.655C133.128 232.085 129.495 231.768 128.425 229.113L118.5 204.5L92.0919 236.272C90.0725 238.702 86.122 237.424 85.9083 234.272L84.5 213.5L67.7361 236.397C66.1109 238.617 62.6781 238.18 61.6603 235.624L22.0086 136.044C21.0675 133.681 22.8825 131.135 25.4237 131.253L180.5 138.5L188.923 57.3706C189.27 54.0325 193.661 53.0487 195.399 55.9198L224.5 104Z" fill="url(#paint1_linear_540_1368)"/>
<path d="M249.853 22.1588L232.659 16.8324L232.659 16.8324L249.853 22.1588ZM224.5 104L209.101 113.32L229.841 147.587L241.694 109.326L224.5 104ZM195.399 55.9198L180 65.2402L180 65.2402L195.399 55.9198ZM188.923 57.3706L171.02 55.5117L171.02 55.5118L188.923 57.3706ZM180.5 138.5L179.66 156.48L196.648 157.274L198.404 140.359L180.5 138.5ZM25.4237 131.253L26.2639 113.273L26.2639 113.273L25.4237 131.253ZM22.0086 136.044L38.7316 129.385L38.7316 129.385L22.0086 136.044ZM61.6603 235.624L44.9373 242.283H44.9374L61.6603 235.624ZM67.7361 236.397L53.2125 225.764L53.2125 225.764L67.7361 236.397ZM84.5 213.5L102.459 212.282L99.1216 163.059L69.9765 202.867L84.5 213.5ZM85.9083 234.272L67.9495 235.489V235.489L85.9083 234.272ZM92.0919 236.272L78.2492 224.767L78.2491 224.767L92.0919 236.272ZM118.5 204.5L135.194 197.769L123.923 169.816L104.657 192.994L118.5 204.5ZM128.425 229.113L111.731 235.844L128.425 229.113ZM134.641 229.655L149.919 239.172L149.919 239.172L134.641 229.655ZM150 205L165.229 195.404L149.913 171.098L134.722 195.483L150 205ZM169.563 236.045L154.334 245.641L169.563 236.045ZM175.702 235.646L192.045 243.189V243.189L175.702 235.646ZM179 228.5L196.076 222.808L181.703 179.689L162.657 220.957L179 228.5ZM188.5 257L183.682 274.343L216.272 283.396L205.576 251.308L188.5 257ZM157.175 248.299L161.992 230.955L157.175 248.299ZM152.742 251.846L134.765 252.744L134.765 252.744L152.742 251.846ZM153.5 267L144.2 282.411L173.167 299.891L171.478 266.101L153.5 267ZM129.426 252.473L138.726 237.061L138.726 237.061L129.426 252.473ZM124.126 255.242L142.087 256.413V256.413L124.126 255.242ZM123 272.5L114.95 288.6L139.198 300.723L140.962 273.671L123 272.5ZM95.4353 258.718L103.485 242.618L103.485 242.618L95.4353 258.718ZM90.441 262.549L72.8057 266.154L90.441 262.549ZM106.644 341.814L89.009 345.419L89.009 345.419L106.644 341.814ZM335.806 249.509L352.802 243.583L352.802 243.583L335.806 249.509ZM256.501 22.0422L273.498 16.1165V16.1164L256.501 22.0422ZM111.436 344.337L104.43 327.756L104.43 327.756L111.436 344.337ZM236.5 291.5L242.622 274.573L235.991 272.175L229.495 274.919L236.5 291.5ZM281.634 307.825L287.756 290.898L287.756 290.898L281.634 307.825ZM284.851 307.047L271.669 294.79L271.669 294.79L284.851 307.047ZM335.064 253.044L321.882 240.787L335.064 253.044ZM232.659 16.8324L207.306 98.6736L241.694 109.326L267.047 27.4851L232.659 16.8324ZM239.899 94.6796L210.798 46.5993L180 65.2402L209.101 113.32L239.899 94.6796ZM171.02 55.5118L162.596 136.641L198.404 140.359L206.827 59.2295L171.02 55.5118ZM181.34 120.52L26.2639 113.273L24.5835 149.234L179.66 156.48L181.34 120.52ZM5.28564 142.703L44.9373 242.283L78.3833 228.965L38.7316 129.385L5.28564 142.703ZM82.2596 247.03L99.0235 224.133L69.9765 202.867L53.2125 225.764L82.2596 247.03ZM66.5412 214.718L67.9495 235.489L103.867 233.054L102.459 212.282L66.5412 214.718ZM105.935 247.778L132.343 216.006L104.657 192.994L78.2492 224.767L105.935 247.778ZM101.806 211.231L111.731 235.844L145.119 222.382L135.194 197.769L101.806 211.231ZM149.919 239.172L165.278 214.517L134.722 195.483L119.363 220.137L149.919 239.172ZM134.771 214.596L154.334 245.641L184.792 226.449L165.229 195.404L134.771 214.596ZM192.045 243.189L195.343 236.043L162.657 220.957L159.359 228.103L192.045 243.189ZM161.924 234.192L171.424 262.692L205.576 251.308L196.076 222.808L161.924 234.192ZM193.318 239.657L161.992 230.955L152.357 265.642L183.682 274.343L193.318 239.657ZM134.765 252.744L135.522 267.899L171.478 266.101L170.72 250.947L134.765 252.744ZM162.8 251.589L138.726 237.061L120.126 267.884L144.2 282.411L162.8 251.589ZM106.164 254.07L105.038 271.329L140.962 273.671L142.087 256.413L106.164 254.07ZM131.05 256.4L103.485 242.618L87.3855 274.817L114.95 288.6L131.05 256.4ZM72.8057 266.154L89.009 345.419L124.28 338.209L108.076 258.944L72.8057 266.154ZM352.802 243.583L273.498 16.1165L239.505 27.968L318.809 255.435L352.802 243.583ZM118.441 360.918L243.505 308.081L229.495 274.919L104.43 327.756L118.441 360.918ZM230.378 308.427L275.511 324.752L287.756 290.898L242.622 274.573L230.378 308.427ZM298.033 319.304L348.246 265.301L321.882 240.787L271.669 294.79L298.033 319.304ZM275.511 324.752C283.432 327.617 292.298 325.472 298.033 319.304L271.669 294.79C275.766 290.384 282.099 288.852 287.756 290.898L275.511 324.752ZM318.809 255.434C317.04 250.36 318.222 244.723 321.882 240.787L348.246 265.301C353.672 259.465 355.426 251.107 352.802 243.583L318.809 255.434ZM89.009 345.419C91.7275 358.718 105.937 366.201 118.441 360.918L104.43 327.756C112.863 324.194 122.446 329.241 124.28 338.209L89.009 345.419ZM161.992 230.955C147.86 227.03 134.032 238.095 134.765 252.744L170.72 250.947C171.214 260.826 161.888 268.289 152.357 265.642L161.992 230.955ZM111.731 235.844C118.308 252.156 140.62 254.1 149.919 239.172L119.363 220.137C125.635 210.07 140.683 211.381 145.119 222.382L111.731 235.844ZM26.2639 113.273C10.6535 112.544 -0.495642 128.184 5.28565 142.703L38.7316 129.385C42.6306 139.177 35.1115 149.726 24.5835 149.234L26.2639 113.273ZM103.485 242.618C87.4449 234.598 69.214 248.584 72.8057 266.154L108.076 258.944C110.499 270.794 98.2033 280.226 87.3855 274.817L103.485 242.618ZM67.9495 235.489C69.2622 254.852 93.5298 262.702 105.935 247.778L78.2491 224.767C86.6152 214.701 102.982 219.996 103.867 233.054L67.9495 235.489ZM210.798 46.5993C200.123 28.9625 173.149 35.0064 171.02 55.5117L206.827 59.2295C205.391 73.0587 187.199 77.1349 180 65.2402L210.798 46.5993ZM138.726 237.061C124.928 228.735 107.213 237.988 106.164 254.07L142.087 256.413C141.38 267.259 129.432 273.5 120.126 267.884L138.726 237.061ZM44.9374 242.283C51.189 257.983 72.2766 260.666 82.2596 247.03L53.2125 225.764C59.9453 216.568 74.1671 218.377 78.3833 228.965L44.9374 242.283ZM154.334 245.641C163.427 260.072 184.897 258.676 192.045 243.189L159.359 228.103C164.179 217.659 178.659 216.717 184.792 226.449L154.334 245.641ZM267.047 27.4851C262.907 40.8493 244.11 41.1789 239.505 27.968L273.498 16.1164C266.668 -3.47213 238.798 -2.98349 232.659 16.8324L267.047 27.4851Z" fill="url(#paint2_linear_540_1368)" mask="url(#path-1-outside-1_540_1368)"/>
<path d="M224.5 104L253 12L333.443 242.732C333.776 243.684 333.943 244.655 333.96 245.611C334.029 249.508 331.606 253.178 327.717 254.512C322.899 256.163 317.654 253.605 315.99 248.792L254 69.5L231.787 133.872C230.846 136.601 227.193 137.081 225.578 134.689L202.5 100.5L196.849 153.719C196.653 155.562 195.055 156.932 193.205 156.846L47.0004 150L68.5004 205L92.0004 173.5L98.0004 202.5L123 171.5L134.5 202.5L150 176.5L173 210.5L180.5 189.5L213 280.5L165.5 265.5L166.5 290L137.5 273.5L136.5 296.5L113.5 287.5L120.5 321L227.696 277.843C232.273 276.001 237.473 278.239 239.281 282.829C241.065 287.357 238.874 292.477 234.367 294.314L111.406 344.409C109.376 345.236 107.095 344.016 106.656 341.869L90.4414 262.549C89.8567 259.689 92.8245 257.412 95.4357 258.718L123 272.5L124.126 255.242C124.297 252.624 127.181 251.117 129.427 252.473L153.5 267L152.743 251.846C152.623 249.461 154.874 247.659 157.175 248.299L188.5 257L179 228.5L175.702 235.646C174.539 238.167 171.044 238.394 169.563 236.045L150 205L134.642 229.655C133.128 232.085 129.496 231.768 128.425 229.113L118.5 204.5L92.0923 236.272C90.0729 238.702 86.1224 237.424 85.9087 234.272L84.5004 213.5L67.7365 236.397C66.1113 238.617 62.6785 238.18 61.6608 235.624L22.0091 136.044C21.0679 133.681 22.8829 131.135 25.4241 131.253L180.5 138.5L188.924 57.3706C189.27 54.0325 193.661 53.0487 195.399 55.9198L224.5 104Z" fill="url(#paint3_linear_540_1368)"/>
<path d="M224.5 104L253 12L333.443 242.732C333.776 243.684 333.943 244.655 333.96 245.611C334.029 249.508 331.606 253.178 327.717 254.512C322.899 256.163 317.654 253.605 315.99 248.792L254 69.5L231.787 133.872C230.846 136.601 227.193 137.081 225.578 134.689L202.5 100.5L196.849 153.719C196.653 155.562 195.055 156.932 193.205 156.846L47.0004 150L68.5004 205L92.0004 173.5L98.0004 202.5L123 171.5L134.5 202.5L150 176.5L173 210.5L180.5 189.5L213 280.5L165.5 265.5L166.5 290L137.5 273.5L136.5 296.5L113.5 287.5L120.5 321L227.696 277.843C232.273 276.001 237.473 278.239 239.281 282.829C241.065 287.357 238.874 292.477 234.367 294.314L111.406 344.409C109.376 345.236 107.095 344.016 106.656 341.869L90.4414 262.549C89.8567 259.689 92.8245 257.412 95.4357 258.718L123 272.5L124.126 255.242C124.297 252.624 127.181 251.117 129.427 252.473L153.5 267L152.743 251.846C152.623 249.461 154.874 247.659 157.175 248.299L188.5 257L179 228.5L175.702 235.646C174.539 238.167 171.044 238.394 169.563 236.045L150 205L134.642 229.655C133.128 232.085 129.496 231.768 128.425 229.113L118.5 204.5L92.0923 236.272C90.0729 238.702 86.1224 237.424 85.9087 234.272L84.5004 213.5L67.7365 236.397C66.1113 238.617 62.6785 238.18 61.6608 235.624L22.0091 136.044C21.0679 133.681 22.8829 131.135 25.4241 131.253L180.5 138.5L188.924 57.3706C189.27 54.0325 193.661 53.0487 195.399 55.9198L224.5 104Z" fill="url(#paint4_linear_540_1368)"/>
<path d="M220.52 149.864C224.035 146.349 229.733 146.349 233.248 149.864C236.763 153.379 236.763 159.077 233.248 162.592L209.592 186.248C206.078 189.762 200.379 189.762 196.865 186.248C193.35 182.733 193.35 177.034 196.865 173.52L220.52 149.864Z" fill="url(#paint5_linear_540_1368)"/>
<path d="M220.52 149.864C224.035 146.349 229.733 146.349 233.248 149.864C236.763 153.379 236.763 159.077 233.248 162.592L209.592 186.248C206.078 189.762 200.379 189.762 196.865 186.248C193.35 182.733 193.35 177.034 196.865 173.52L220.52 149.864Z" fill="url(#paint6_linear_540_1368)"/>
<path d="M220.874 150.218C224.193 146.898 229.575 146.898 232.895 150.218C236.214 153.537 236.214 158.919 232.895 162.238L209.239 185.894C205.919 189.214 200.538 189.214 197.218 185.894C193.899 182.575 193.899 177.193 197.218 173.873L220.874 150.218Z" fill="white" stroke="url(#paint7_linear_540_1368)"/>
</g>
<defs>
<filter id="filter0_ddddi_540_1368" x="0.736328" y="0.0942901" width="356.265" height="368.531" filterUnits="userSpaceOnUse" color-interpolation-filters="sRGB">
<feFlood flood-opacity="0" result="BackgroundImageFix"/>
<feColorMatrix in="SourceAlpha" type="matrix" values="0 0 0 0 0 0 0 0 0 0 0 0 0 0 0 0 0 0 127 0" result="hardAlpha"/>
<feOffset/>
<feColorMatrix type="matrix" values="0 0 0 0 0 0 0 0 0 0 0 0 0 0 0 0 0 0 0.06 0"/>
<feBlend mode="normal" in2="BackgroundImageFix" result="effect1_dropShadow_540_1368"/>
<feColorMatrix in="SourceAlpha" type="matrix" values="0 0 0 0 0 0 0 0 0 0 0 0 0 0 0 0 0 0 127 0" result="hardAlpha"/>
<feOffset dy="1"/>
<feGaussianBlur stdDeviation="0.5"/>
<feComposite in2="hardAlpha" operator="out"/>
<feColorMatrix type="matrix" values="0 0 0 0 0 0 0 0 0 0 0 0 0 0 0 0 0 0 0.06 0"/>
<feBlend mode="normal" in2="effect1_dropShadow_540_1368" result="effect2_dropShadow_540_1368"/>
<feColorMatrix in="SourceAlpha" type="matrix" values="0 0 0 0 0 0 0 0 0 0 0 0 0 0 0 0 0 0 127 0" result="hardAlpha"/>
<feOffset dy="3"/>
<feGaussianBlur stdDeviation="1.5"/>
<feComposite in2="hardAlpha" operator="out"/>
<feColorMatrix type="matrix" values="0 0 0 0 0 0 0 0 0 0 0 0 0 0 0 0 0 0 0.06 0"/>
<feBlend mode="normal" in2="effect2_dropShadow_540_1368" result="effect3_dropShadow_540_1368"/>
<feColorMatrix in="SourceAlpha" type="matrix" values="0 0 0 0 0 0 0 0 0 0 0 0 0 0 0 0 0 0 127 0" result="hardAlpha"/>
<feOffset/>
<feGaussianBlur stdDeviation="0.8"/>
<feComposite in2="hardAlpha" operator="out"/>
<feColorMatrix type="matrix" values="0 0 0 0 0 0 0 0 0 0 0 0 0 0 0 0 0 0 0.25 0"/>
<feBlend mode="normal" in2="effect3_dropShadow_540_1368" result="effect4_dropShadow_540_1368"/>
<feBlend mode="normal" in="SourceGraphic" in2="effect4_dropShadow_540_1368" result="shape"/>
<feColorMatrix in="SourceAlpha" type="matrix" values="0 0 0 0 0 0 0 0 0 0 0 0 0 0 0 0 0 0 127 0" result="hardAlpha"/>
<feOffset dx="-0.5" dy="1"/>
<feGaussianBlur stdDeviation="0.5"/>
<feComposite in2="hardAlpha" operator="arithmetic" k2="-1" k3="1"/>
<feColorMatrix type="matrix" values="0 0 0 0 1 0 0 0 0 1 0 0 0 0 1 0 0 0 0.9 0"/>
<feBlend mode="normal" in2="shape" result="effect5_innerShadow_540_1368"/>
</filter>
<linearGradient id="paint0_linear_540_1368" x1="178.25" y1="12" x2="178.25" y2="346" gradientUnits="userSpaceOnUse">
<stop stop-color="#5420CE"/>
<stop offset="1" stop-color="#320C8B"/>
</linearGradient>
<linearGradient id="paint1_linear_540_1368" x1="178.25" y1="12" x2="178.25" y2="346" gradientUnits="userSpaceOnUse">
<stop stop-color="#2912B4"/>
<stop offset="1" stop-color="#735FE8"/>
</linearGradient>
<linearGradient id="paint2_linear_540_1368" x1="178.25" y1="12" x2="178.25" y2="346" gradientUnits="userSpaceOnUse">
<stop stop-color="#F4F4F4"/>
<stop offset="1" stop-color="#E9E9E9"/>
</linearGradient>
<linearGradient id="paint3_linear_540_1368" x1="178.879" y1="12" x2="178.879" y2="344.67" gradientUnits="userSpaceOnUse">
<stop stop-color="#5420CE"/>
<stop offset="1" stop-color="#320C8B"/>
</linearGradient>
<linearGradient id="paint4_linear_540_1368" x1="178.879" y1="12" x2="178.879" y2="344.67" gradientUnits="userSpaceOnUse">
<stop stop-color="#2912B4"/>
<stop offset="1" stop-color="#735FE8"/>
</linearGradient>
<linearGradient id="paint5_linear_540_1368" x1="178.879" y1="12" x2="178.879" y2="344.67" gradientUnits="userSpaceOnUse">
<stop stop-color="#5420CE"/>
<stop offset="1" stop-color="#320C8B"/>
</linearGradient>
<linearGradient id="paint6_linear_540_1368" x1="178.879" y1="12" x2="178.879" y2="344.67" gradientUnits="userSpaceOnUse">
<stop stop-color="#2912B4"/>
<stop offset="1" stop-color="#735FE8"/>
</linearGradient>
<linearGradient id="paint7_linear_540_1368" x1="215.056" y1="147.228" x2="215.056" y2="188.884" gradientUnits="userSpaceOnUse">
<stop stop-color="#F4F4F4"/>
<stop offset="1" stop-color="#E9E9E9"/>
</linearGradient>
</defs>
</svg>
