<svg width="83" height="81" viewBox="0 0 83 81" fill="none" xmlns="http://www.w3.org/2000/svg">
<path d="M68.1483 63.0939C68.9224 67.7072 70.6263 72.0569 72.1382 73.6138C72.8942 75.1708 71.8862 68.9851 70.3323 64.6929C72.5434 64.6775 73.4333 64.6195 75.9601 66.1236C77.3881 66.6707 80.622 67.6385 79.53 66.6707C77.0289 63.8517 75.4589 62.4879 72.1382 60.7375C75.6825 58.7273 77.5985 58.2642 81 57.5815C76.5503 57.5106 74.0573 57.5675 69.6183 58.2127C67.504 54.063 66.2666 52.3314 64.0324 49.5443C71.4194 35.7578 73.6933 28.4795 64.4944 18.6999C59.8325 11.0835 61.6919 7.15357 72.7682 8.85331C49.7108 -7.76813 40.135 9.56867 49.0388 21.5614M68.4843 62.0419C65.7783 57.1419 63.9168 54.7216 60.1265 50.8488C54.9119 53.4357 51.6856 52.7417 45.7629 50.3017L41.773 53.2052C42.2611 59.7514 42.2791 63.3334 41.395 69.4059C46.2256 70.1978 48.0741 71.3791 51.2228 73.6138C47.2338 72.9078 45.0339 72.5883 41.395 72.6039C43.886 74.9455 44.6825 76.3779 45.7629 79C39.3791 76.2648 39.2111 69.4059 27.1574 73.6138C29.8962 71.678 31.4892 70.6517 35.4312 69.9529H37.4891C38.3653 64.2662 38.4974 61.037 37.9091 55.1829C30.1315 61.9217 21.5715 64.8192 9.8538 73.6138C12.1161 68.148 12.9856 65.0755 16.9096 59.6434C20.1109 55.3199 21.5884 52.682 24.3014 48.0294C14.5933 45.777 9.51007 44.4376 2 41.7175C4.81491 40.5115 6.63787 39.8744 10.3578 38.814C17.4272 38.7456 20.6055 37.257 29.6353 37.257C34.7441 28.8554 37.7355 24.7202 47.8313 19.7099M52.4827 6.28646C55.4186 5.59313 57.1567 5.40681 60.6725 5.9919C57.9408 5.70621 56.4596 5.65116 54.3307 6.6231" stroke="black" stroke-width="2.8" stroke-linecap="round" stroke-linejoin="round"/>
</svg>
