<svg width="221" height="239" viewBox="0 0 221 239" fill="none" xmlns="http://www.w3.org/2000/svg">
<g filter="url(#filter0_i_356_5133)">
<g filter="url(#filter1_dddd_356_5133)">
<path d="M124.996 93.9325C126.177 93.9657 127.294 93.401 127.968 92.431L175.01 24.7276C176.862 22.0624 181.029 23.1345 181.365 26.3625L200.361 208.913C200.561 210.834 199.167 212.554 197.246 212.756L185.805 213.958L36.379 214.987L24.762 213.826C22.8777 213.637 21.4849 211.984 21.6188 210.095L34.6965 25.5579C34.9273 22.3009 39.0979 21.1061 41.0183 23.7468L90.3616 91.5957C90.9998 92.4734 92.0091 93.0053 93.0938 93.0358L124.996 93.9325Z" fill="url(#paint0_linear_356_5133)"/>
<path d="M185.867 222.958L186.308 222.955L186.746 222.909L198.186 221.706C205.047 220.985 210.027 214.843 209.313 207.981L190.317 25.431C189.117 13.9023 174.232 10.0735 167.619 19.5922L122.275 84.8525L96.0498 84.1153L48.297 18.4534C41.4382 9.0222 26.5433 13.2895 25.719 24.9217L12.6413 209.459C12.1632 216.205 17.1374 222.108 23.867 222.781L35.484 223.942L35.9613 223.99L36.4409 223.986L185.867 222.958Z" stroke="url(#paint1_linear_356_5133)" stroke-width="18"/>
</g>
<path d="M123.86 93.9009C124.967 93.932 125.52 93.9476 126.026 93.808C126.473 93.6844 126.892 93.473 127.257 93.1862C127.669 92.8621 127.985 92.4076 128.617 91.4985L171.782 29.3736C174.442 25.5452 175.772 23.631 177.071 23.3208C178.197 23.052 179.383 23.357 180.239 24.1355C181.227 25.0342 181.468 27.3526 181.951 31.9893L199.947 204.93C200.376 209.052 197.385 212.741 193.264 213.175C189.143 213.608 185.45 210.621 185.013 206.501L169.388 59.4861L136.636 106.953C135.998 107.878 135.679 108.341 135.26 108.669C134.89 108.959 134.465 109.172 134.011 109.295C133.498 109.433 132.936 109.412 131.814 109.369L85.0818 107.589C84.0923 107.551 83.5976 107.533 83.1457 107.389C82.7454 107.262 82.3713 107.064 82.0411 106.804C81.6684 106.511 81.3747 106.113 80.7872 105.316L47.3752 59.9869L36.928 207.251C36.6275 211.487 32.888 214.638 28.6627 214.216C24.6063 213.81 21.6079 210.252 21.8961 206.186L34.2897 31.3011C34.6243 26.5797 34.7916 24.219 35.7579 23.2868C36.5948 22.4794 37.778 22.1405 38.9155 22.3822C40.2288 22.6613 41.6208 24.5753 44.4047 28.4032L89.7545 90.7611C90.3487 91.5781 90.6458 91.9866 91.0249 92.2856C91.3607 92.5505 91.7422 92.7515 92.1505 92.8789C92.6114 93.0226 93.1163 93.0368 94.1261 93.0652L123.86 93.9009Z" fill="url(#paint2_linear_356_5133)"/>
<path d="M61.0577 138.257C57.3671 136.376 55.8996 131.86 57.7801 128.169C59.6606 124.479 64.1769 123.011 67.8676 124.892L84.6391 133.437C88.3297 135.318 89.7972 139.834 87.9167 143.525C86.0362 147.215 81.5199 148.683 77.8292 146.802L61.0577 138.257Z" fill="url(#paint3_linear_356_5133)"/>
<path d="M136.207 145.368C132.585 147.376 128.02 146.067 126.012 142.444C124.003 138.822 125.312 134.257 128.935 132.249L145.398 123.123C149.021 121.115 153.586 122.424 155.594 126.047C157.602 129.669 156.293 134.234 152.67 136.242L136.207 145.368Z" fill="url(#paint4_linear_356_5133)"/>
<path d="M131.375 166.487L138.767 156.299C140.98 153.248 145.395 152.899 148.06 155.564L161.617 169.121C164.534 172.039 164.534 176.768 161.617 179.686C158.683 182.619 153.921 182.601 151.011 179.644L142.983 171.487L140.664 174.784C137.542 179.221 135.982 181.439 134.046 182.21C132.353 182.885 130.464 182.873 128.78 182.176C126.855 181.38 125.323 179.141 122.26 174.664L118.375 168.987L115.794 173.504C113.278 177.908 112.019 180.11 110.259 181.06C108.717 181.892 106.918 182.116 105.219 181.687C103.28 181.197 101.521 179.37 98.0022 175.716L95.3751 172.988L87.8021 180.561C84.7153 183.648 83.172 185.191 81.428 185.689C79.8966 186.127 78.2617 186.029 76.7933 185.412C75.1211 184.71 73.7726 182.993 71.0757 179.561L67.8762 175.489L65.9474 177.417C63.1269 180.238 58.5713 180.293 55.6828 177.542C52.7495 174.749 52.6301 170.108 55.416 167.167L64.5721 157.502C66.5742 155.388 69.9874 155.551 71.7797 157.845L80.8752 169.487L87.1059 163.041C89.983 160.065 91.4216 158.577 93.0844 158.039C94.5459 157.566 96.1224 157.587 97.5708 158.098C99.2188 158.68 100.617 160.206 103.415 163.257L106.375 166.487L109.675 161.95C112.63 157.887 114.107 155.856 115.948 155.102C117.56 154.443 119.361 154.408 120.998 155.005C122.866 155.687 124.421 157.66 127.53 161.606L131.375 166.487Z" fill="url(#paint5_linear_356_5133)"/>
</g>
<defs>
<filter id="filter0_i_356_5133" x="0.5" y="0.922852" width="217.881" height="233.07" filterUnits="userSpaceOnUse" color-interpolation-filters="sRGB">
<feFlood flood-opacity="0" result="BackgroundImageFix"/>
<feBlend mode="normal" in="SourceGraphic" in2="BackgroundImageFix" result="shape"/>
<feColorMatrix in="SourceAlpha" type="matrix" values="0 0 0 0 0 0 0 0 0 0 0 0 0 0 0 0 0 0 127 0" result="hardAlpha"/>
<feOffset dx="-0.5" dy="1"/>
<feGaussianBlur stdDeviation="0.5"/>
<feComposite in2="hardAlpha" operator="arithmetic" k2="-1" k3="1"/>
<feColorMatrix type="matrix" values="0 0 0 0 1 0 0 0 0 1 0 0 0 0 1 0 0 0 0.9 0"/>
<feBlend mode="normal" in2="shape" result="effect1_innerShadow_356_5133"/>
</filter>
<filter id="filter1_dddd_356_5133" x="0.609375" y="2.67539" width="220.772" height="236.318" filterUnits="userSpaceOnUse" color-interpolation-filters="sRGB">
<feFlood flood-opacity="0" result="BackgroundImageFix"/>
<feColorMatrix in="SourceAlpha" type="matrix" values="0 0 0 0 0 0 0 0 0 0 0 0 0 0 0 0 0 0 127 0" result="hardAlpha"/>
<feOffset/>
<feColorMatrix type="matrix" values="0 0 0 0 0 0 0 0 0 0 0 0 0 0 0 0 0 0 0.06 0"/>
<feBlend mode="normal" in2="BackgroundImageFix" result="effect1_dropShadow_356_5133"/>
<feColorMatrix in="SourceAlpha" type="matrix" values="0 0 0 0 0 0 0 0 0 0 0 0 0 0 0 0 0 0 127 0" result="hardAlpha"/>
<feOffset dy="1"/>
<feGaussianBlur stdDeviation="0.5"/>
<feComposite in2="hardAlpha" operator="out"/>
<feColorMatrix type="matrix" values="0 0 0 0 0 0 0 0 0 0 0 0 0 0 0 0 0 0 0.06 0"/>
<feBlend mode="normal" in2="effect1_dropShadow_356_5133" result="effect2_dropShadow_356_5133"/>
<feColorMatrix in="SourceAlpha" type="matrix" values="0 0 0 0 0 0 0 0 0 0 0 0 0 0 0 0 0 0 127 0" result="hardAlpha"/>
<feOffset dy="3"/>
<feGaussianBlur stdDeviation="1.5"/>
<feComposite in2="hardAlpha" operator="out"/>
<feColorMatrix type="matrix" values="0 0 0 0 0 0 0 0 0 0 0 0 0 0 0 0 0 0 0.06 0"/>
<feBlend mode="normal" in2="effect2_dropShadow_356_5133" result="effect3_dropShadow_356_5133"/>
<feColorMatrix in="SourceAlpha" type="matrix" values="0 0 0 0 0 0 0 0 0 0 0 0 0 0 0 0 0 0 127 0" result="hardAlpha"/>
<feOffset/>
<feGaussianBlur stdDeviation="0.8"/>
<feComposite in2="hardAlpha" operator="out"/>
<feColorMatrix type="matrix" values="0 0 0 0 0 0 0 0 0 0 0 0 0 0 0 0 0 0 0.25 0"/>
<feBlend mode="normal" in2="effect3_dropShadow_356_5133" result="effect4_dropShadow_356_5133"/>
<feBlend mode="normal" in="SourceGraphic" in2="effect4_dropShadow_356_5133" result="shape"/>
</filter>
<linearGradient id="paint0_linear_356_5133" x1="89.8506" y1="10.261" x2="112.074" y2="221.707" gradientUnits="userSpaceOnUse">
<stop stop-color="#F9F9F9"/>
<stop offset="1" stop-color="#EDEDED"/>
</linearGradient>
<linearGradient id="paint1_linear_356_5133" x1="89.8506" y1="10.261" x2="112.074" y2="221.707" gradientUnits="userSpaceOnUse">
<stop stop-color="#F9F9F9"/>
<stop offset="1" stop-color="#EDEDED"/>
</linearGradient>
<linearGradient id="paint2_linear_356_5133" x1="110.932" y1="22.3057" x2="110.932" y2="214.254" gradientUnits="userSpaceOnUse">
<stop stop-color="#242424"/>
<stop offset="1" stop-color="#434343"/>
</linearGradient>
<linearGradient id="paint3_linear_356_5133" x1="110.932" y1="22.3057" x2="110.932" y2="214.254" gradientUnits="userSpaceOnUse">
<stop stop-color="#242424"/>
<stop offset="1" stop-color="#434343"/>
</linearGradient>
<linearGradient id="paint4_linear_356_5133" x1="110.932" y1="22.3057" x2="110.932" y2="214.254" gradientUnits="userSpaceOnUse">
<stop stop-color="#242424"/>
<stop offset="1" stop-color="#434343"/>
</linearGradient>
<linearGradient id="paint5_linear_356_5133" x1="110.932" y1="22.3057" x2="110.932" y2="214.254" gradientUnits="userSpaceOnUse">
<stop stop-color="#242424"/>
<stop offset="1" stop-color="#434343"/>
</linearGradient>
</defs>
</svg>
