<svg width="221" height="239" viewBox="0 0 221 239" fill="none" xmlns="http://www.w3.org/2000/svg">
<g filter="url(#filter0_i_139_1681)">
<g filter="url(#filter1_dddd_139_1681)">
<path d="M124.996 93.7958C126.177 93.829 127.294 93.2643 127.968 92.2943L175.01 24.5909C176.862 21.9257 181.029 22.9977 181.365 26.2258L200.361 208.776C200.561 210.697 199.167 212.417 197.246 212.619L185.805 213.821L36.379 214.85L24.762 213.689C22.8777 213.501 21.4849 211.848 21.6188 209.959L34.6965 25.4212C34.9273 22.1642 39.0979 20.9694 41.0183 23.6101L90.3616 91.459C90.9998 92.3367 92.0091 92.8686 93.0938 92.8991L124.996 93.7958Z" fill="url(#paint0_linear_139_1681)"/>
<path d="M185.867 222.821L186.308 222.818L186.746 222.772L198.186 221.57C205.047 220.849 210.027 214.706 209.313 207.844L190.317 25.2943C189.117 13.7655 174.232 9.93684 167.619 19.4555L122.275 84.7157L96.0498 83.9786L48.297 18.3166L41.0183 23.6101L48.297 18.3166C41.4382 8.8855 26.5433 13.1528 25.719 24.785L12.6413 209.323C12.1632 216.069 17.1374 221.972 23.867 222.644L35.484 223.805L35.9613 223.853L36.4409 223.85L185.867 222.821Z" stroke="url(#paint1_linear_139_1681)" stroke-width="18"/>
</g>
<path d="M123.86 93.7633C124.967 93.7943 125.52 93.8099 126.026 93.6703C126.473 93.5467 126.892 93.3354 127.257 93.0485C127.669 92.7244 127.985 92.2699 128.617 91.3608L171.782 29.2359C174.442 25.4075 175.772 23.4933 177.071 23.1831C178.197 22.9143 179.383 23.2193 180.239 23.9978C181.227 24.8965 181.468 27.2149 181.951 31.8516L199.947 204.793C200.376 208.914 197.385 212.604 193.264 213.037C189.143 213.47 185.45 210.483 185.013 206.363L169.388 59.3484L136.636 106.816C135.998 107.741 135.679 108.203 135.26 108.531C134.89 108.822 134.465 109.034 134.011 109.157C133.498 109.295 132.936 109.274 131.814 109.231L85.0818 107.451C84.0923 107.414 83.5976 107.395 83.1457 107.252C82.7454 107.124 82.3713 106.926 82.0411 106.667C81.6684 106.374 81.3747 105.975 80.7872 105.178L47.3752 59.8492L36.928 207.114C36.6275 211.349 32.888 214.5 28.6627 214.078C24.6063 213.673 21.6079 210.114 21.8961 206.048L34.2897 31.1634C34.6243 26.442 34.7916 24.0813 35.7579 23.1491C36.5948 22.3417 37.778 22.0028 38.9155 22.2445C40.2288 22.5236 41.6208 24.4376 44.4047 28.2655L89.7545 90.6234C90.3487 91.4404 90.6458 91.8489 91.0249 92.1479C91.3607 92.4128 91.7422 92.6139 92.1505 92.7412C92.6114 92.8849 93.1163 92.8991 94.1261 92.9275L123.86 93.7633Z" fill="url(#paint2_linear_139_1681)"/>
<path d="M61.0577 138.119C57.3671 136.239 55.8996 131.722 57.7801 128.032C59.6606 124.341 64.1769 122.874 67.8676 124.754L84.6391 133.3C88.3297 135.18 89.7972 139.696 87.9167 143.387C86.0362 147.078 81.5199 148.545 77.8292 146.665L61.0577 138.119Z" fill="url(#paint3_linear_139_1681)"/>
<path d="M136.207 145.23C132.585 147.238 128.02 145.929 126.012 142.307C124.003 138.684 125.312 134.119 128.935 132.111L145.398 122.985C149.021 120.977 153.586 122.286 155.594 125.909C157.602 129.532 156.293 134.097 152.67 136.105L136.207 145.23Z" fill="url(#paint4_linear_139_1681)"/>
<path d="M131.375 166.349L138.767 156.161C140.98 153.111 145.395 152.762 148.06 155.426L161.617 168.984C164.534 171.901 164.534 176.631 161.617 179.548C158.683 182.482 153.921 182.463 151.011 179.506L142.983 171.349L140.664 174.646C137.542 179.083 135.982 181.301 134.046 182.073C132.353 182.747 130.464 182.735 128.78 182.038C126.855 181.242 125.323 179.004 122.26 174.527L118.375 168.849L115.794 173.366C113.278 177.77 112.019 179.972 110.259 180.922C108.717 181.755 106.918 181.978 105.219 181.549C103.28 181.059 101.521 179.232 98.0022 175.578L95.3751 172.85L87.8021 180.423C84.7153 183.51 83.172 185.053 81.428 185.552C79.8966 185.989 78.2617 185.891 76.7933 185.274C75.1211 184.572 73.7726 182.856 71.0757 179.423L67.8762 175.351L65.9474 177.28C63.1269 180.1 58.5713 180.156 55.6828 177.405C52.7495 174.611 52.6301 169.97 55.416 167.029L64.5721 157.364C66.5742 155.25 69.9874 155.413 71.7797 157.707L80.8752 169.349L87.1059 162.904C89.983 159.927 91.4216 158.439 93.0844 157.901C94.5459 157.428 96.1224 157.449 97.5708 157.96C99.2188 158.542 100.617 160.068 103.415 163.12L106.375 166.349L109.675 161.812C112.63 157.749 114.107 155.718 115.948 154.965C117.56 154.305 119.361 154.27 120.998 154.867C122.866 155.549 124.421 157.522 127.53 161.469L131.375 166.349Z" fill="url(#paint5_linear_139_1681)"/>
</g>
<defs>
<filter id="filter0_i_139_1681" x="0.5" y="0.785156" width="217.881" height="233.071" filterUnits="userSpaceOnUse" color-interpolation-filters="sRGB">
<feFlood flood-opacity="0" result="BackgroundImageFix"/>
<feBlend mode="normal" in="SourceGraphic" in2="BackgroundImageFix" result="shape"/>
<feColorMatrix in="SourceAlpha" type="matrix" values="0 0 0 0 0 0 0 0 0 0 0 0 0 0 0 0 0 0 127 0" result="hardAlpha"/>
<feOffset dx="-0.5" dy="1"/>
<feGaussianBlur stdDeviation="0.5"/>
<feComposite in2="hardAlpha" operator="arithmetic" k2="-1" k3="1"/>
<feColorMatrix type="matrix" values="0 0 0 0 1 0 0 0 0 1 0 0 0 0 1 0 0 0 0.9 0"/>
<feBlend mode="normal" in2="shape" result="effect1_innerShadow_139_1681"/>
</filter>
<filter id="filter1_dddd_139_1681" x="0.609375" y="2.53867" width="220.772" height="236.318" filterUnits="userSpaceOnUse" color-interpolation-filters="sRGB">
<feFlood flood-opacity="0" result="BackgroundImageFix"/>
<feColorMatrix in="SourceAlpha" type="matrix" values="0 0 0 0 0 0 0 0 0 0 0 0 0 0 0 0 0 0 127 0" result="hardAlpha"/>
<feOffset/>
<feColorMatrix type="matrix" values="0 0 0 0 0 0 0 0 0 0 0 0 0 0 0 0 0 0 0.06 0"/>
<feBlend mode="normal" in2="BackgroundImageFix" result="effect1_dropShadow_139_1681"/>
<feColorMatrix in="SourceAlpha" type="matrix" values="0 0 0 0 0 0 0 0 0 0 0 0 0 0 0 0 0 0 127 0" result="hardAlpha"/>
<feOffset dy="1"/>
<feGaussianBlur stdDeviation="0.5"/>
<feComposite in2="hardAlpha" operator="out"/>
<feColorMatrix type="matrix" values="0 0 0 0 0 0 0 0 0 0 0 0 0 0 0 0 0 0 0.06 0"/>
<feBlend mode="normal" in2="effect1_dropShadow_139_1681" result="effect2_dropShadow_139_1681"/>
<feColorMatrix in="SourceAlpha" type="matrix" values="0 0 0 0 0 0 0 0 0 0 0 0 0 0 0 0 0 0 127 0" result="hardAlpha"/>
<feOffset dy="3"/>
<feGaussianBlur stdDeviation="1.5"/>
<feComposite in2="hardAlpha" operator="out"/>
<feColorMatrix type="matrix" values="0 0 0 0 0 0 0 0 0 0 0 0 0 0 0 0 0 0 0.06 0"/>
<feBlend mode="normal" in2="effect2_dropShadow_139_1681" result="effect3_dropShadow_139_1681"/>
<feColorMatrix in="SourceAlpha" type="matrix" values="0 0 0 0 0 0 0 0 0 0 0 0 0 0 0 0 0 0 127 0" result="hardAlpha"/>
<feOffset/>
<feGaussianBlur stdDeviation="0.8"/>
<feComposite in2="hardAlpha" operator="out"/>
<feColorMatrix type="matrix" values="0 0 0 0 0 0 0 0 0 0 0 0 0 0 0 0 0 0 0.25 0"/>
<feBlend mode="normal" in2="effect3_dropShadow_139_1681" result="effect4_dropShadow_139_1681"/>
<feBlend mode="normal" in="SourceGraphic" in2="effect4_dropShadow_139_1681" result="shape"/>
</filter>
<linearGradient id="paint0_linear_139_1681" x1="89.8506" y1="10.1243" x2="112.074" y2="221.571" gradientUnits="userSpaceOnUse">
<stop stop-color="#F4F4F4"/>
<stop offset="1" stop-color="#E9E9E9"/>
</linearGradient>
<linearGradient id="paint1_linear_139_1681" x1="89.8506" y1="10.1243" x2="112.074" y2="221.571" gradientUnits="userSpaceOnUse">
<stop stop-color="#F4F4F4"/>
<stop offset="1" stop-color="#E9E9E9"/>
</linearGradient>
<linearGradient id="paint2_linear_139_1681" x1="110.932" y1="22.168" x2="110.932" y2="214.116" gradientUnits="userSpaceOnUse">
<stop stop-color="#2912B4"/>
<stop offset="1" stop-color="#735FE8"/>
</linearGradient>
<linearGradient id="paint3_linear_139_1681" x1="110.932" y1="22.168" x2="110.932" y2="214.116" gradientUnits="userSpaceOnUse">
<stop stop-color="#2912B4"/>
<stop offset="1" stop-color="#735FE8"/>
</linearGradient>
<linearGradient id="paint4_linear_139_1681" x1="110.932" y1="22.168" x2="110.932" y2="214.116" gradientUnits="userSpaceOnUse">
<stop stop-color="#2912B4"/>
<stop offset="1" stop-color="#735FE8"/>
</linearGradient>
<linearGradient id="paint5_linear_139_1681" x1="110.932" y1="22.168" x2="110.932" y2="214.116" gradientUnits="userSpaceOnUse">
<stop stop-color="#2912B4"/>
<stop offset="1" stop-color="#735FE8"/>
</linearGradient>
</defs>
</svg>
