<svg width="657" height="837" viewBox="0 0 657 837" fill="none" xmlns="http://www.w3.org/2000/svg">
<g filter="url(#filter0_ddddi_356_5121)">
<path d="M357.499 357.5C382.999 303 465.503 314.817 465.503 385.816C465.503 219 502.499 134.103 554.999 144.65C604.009 154.495 606.396 243.867 563.383 440.63C557.025 469.714 553.415 499.479 549.404 528.978C496.572 917.56 33.0927 779.66 83.0618 523.518C88.2025 497.167 103.8 473.894 124.041 456.254C132.024 449.296 139.851 442.985 147.5 437.284C63.4999 281.999 31.5039 80.4313 103.503 63.8159C175.503 47.2006 219.004 182.317 243.503 369.817C264.999 283 348.999 314 357.499 357.5Z" fill="white"/>
<path d="M199.003 544.815C225.999 540 248.963 528.5 268.499 512.5M457.999 449.5C457.999 538 392.499 564.5 357.499 512.5M357.499 357.5C382.999 303 465.503 314.817 465.503 385.816C465.503 219 502.499 134.103 554.999 144.65C604.009 154.495 606.396 243.867 563.383 440.63C557.025 469.714 553.415 499.479 549.404 528.978C496.572 917.56 33.0927 779.66 83.0618 523.518C88.2025 497.167 103.8 473.894 124.041 456.254C277.253 322.727 372.465 427.351 268.499 512.5M357.499 357.5C351.222 396 345.999 494 357.499 512.5M357.499 357.5C348.999 314 264.999 283 243.503 369.817C219.004 182.317 175.503 47.2006 103.503 63.8159C31.5038 80.4313 63.5 282 147.5 437.284M357.499 512.5C332.499 537 285.499 540 268.499 512.5" stroke="white" stroke-width="120" stroke-linecap="round" stroke-linejoin="round"/>
</g>
<path d="M199.004 544.815C226 540 248.964 528.5 268.5 512.5M458 449.5C458 538 392.5 564.5 357.5 512.5M357.5 357.5C383 303 465.504 314.817 465.504 385.816C465.504 219 502.5 134.103 555 144.65C604.01 154.495 606.396 243.867 563.384 440.63C557.026 469.714 553.416 499.479 549.405 528.978C496.573 917.56 33.0936 779.66 83.0628 523.518C88.2035 497.167 103.801 473.894 124.042 456.254C277.254 322.727 372.466 427.351 268.5 512.5M357.5 357.5C351.223 396 346 494 357.5 512.5M357.5 357.5C349 314 265 283 243.504 369.817C219.005 182.317 175.504 47.2006 103.504 63.8159C31.5048 80.4313 60.5036 256.316 134.503 409.316M357.5 512.5C332.5 537 285.5 540 268.5 512.5" stroke="black" stroke-width="30" stroke-linecap="round" stroke-linejoin="round"/>
<defs>
<filter id="filter0_ddddi_356_5121" x="0.619141" y="0.80918" width="656.197" height="836.122" filterUnits="userSpaceOnUse" color-interpolation-filters="sRGB">
<feFlood flood-opacity="0" result="BackgroundImageFix"/>
<feColorMatrix in="SourceAlpha" type="matrix" values="0 0 0 0 0 0 0 0 0 0 0 0 0 0 0 0 0 0 127 0" result="hardAlpha"/>
<feOffset/>
<feColorMatrix type="matrix" values="0 0 0 0 0 0 0 0 0 0 0 0 0 0 0 0 0 0 0.06 0"/>
<feBlend mode="normal" in2="BackgroundImageFix" result="effect1_dropShadow_356_5121"/>
<feColorMatrix in="SourceAlpha" type="matrix" values="0 0 0 0 0 0 0 0 0 0 0 0 0 0 0 0 0 0 127 0" result="hardAlpha"/>
<feOffset dy="1"/>
<feGaussianBlur stdDeviation="0.5"/>
<feComposite in2="hardAlpha" operator="out"/>
<feColorMatrix type="matrix" values="0 0 0 0 0 0 0 0 0 0 0 0 0 0 0 0 0 0 0.06 0"/>
<feBlend mode="normal" in2="effect1_dropShadow_356_5121" result="effect2_dropShadow_356_5121"/>
<feColorMatrix in="SourceAlpha" type="matrix" values="0 0 0 0 0 0 0 0 0 0 0 0 0 0 0 0 0 0 127 0" result="hardAlpha"/>
<feOffset dy="3"/>
<feGaussianBlur stdDeviation="1.5"/>
<feComposite in2="hardAlpha" operator="out"/>
<feColorMatrix type="matrix" values="0 0 0 0 0 0 0 0 0 0 0 0 0 0 0 0 0 0 0.06 0"/>
<feBlend mode="normal" in2="effect2_dropShadow_356_5121" result="effect3_dropShadow_356_5121"/>
<feColorMatrix in="SourceAlpha" type="matrix" values="0 0 0 0 0 0 0 0 0 0 0 0 0 0 0 0 0 0 127 0" result="hardAlpha"/>
<feOffset/>
<feGaussianBlur stdDeviation="0.8"/>
<feComposite in2="hardAlpha" operator="out"/>
<feColorMatrix type="matrix" values="0 0 0 0 0 0 0 0 0 0 0 0 0 0 0 0 0 0 0.25 0"/>
<feBlend mode="normal" in2="effect3_dropShadow_356_5121" result="effect4_dropShadow_356_5121"/>
<feBlend mode="normal" in="SourceGraphic" in2="effect4_dropShadow_356_5121" result="shape"/>
<feColorMatrix in="SourceAlpha" type="matrix" values="0 0 0 0 0 0 0 0 0 0 0 0 0 0 0 0 0 0 127 0" result="hardAlpha"/>
<feOffset dx="-0.5" dy="1"/>
<feGaussianBlur stdDeviation="0.5"/>
<feComposite in2="hardAlpha" operator="arithmetic" k2="-1" k3="1"/>
<feColorMatrix type="matrix" values="0 0 0 0 1 0 0 0 0 1 0 0 0 0 1 0 0 0 0.9 0"/>
<feBlend mode="normal" in2="shape" result="effect5_innerShadow_356_5121"/>
</filter>
</defs>
</svg>
